<svg xmlns="http://www.w3.org/2000/svg" width="500" height="707" viewBox="0 0 50000 70700"><defs><marker id="c" refX="0" refY="0" orient="auto" overflow="visible"><path d="M-5.231-2.42L1.324-.01-5.23 2.401c1.047-1.423 1.041-3.37 0-4.821z" fill-rule="evenodd" stroke="#000" stroke-width=".375" stroke-linejoin="round"/></marker><marker orient="auto" refY="0" refX="0" id="b" overflow="visible"><path d="M-5.231-2.42L1.324-.01-5.23 2.401c1.047-1.423 1.041-3.37 0-4.821z" fill-rule="evenodd" stroke="#000" stroke-width=".375" stroke-linejoin="round"/></marker><marker orient="auto" refY="0" refX="0" id="a" overflow="visible"><path d="M-5.231-2.42L1.324-.01-5.23 2.401c1.047-1.423 1.041-3.37 0-4.821z" fill-rule="evenodd" stroke="#000" stroke-width=".375" stroke-linejoin="round"/></marker></defs><path color="#000" overflow="visible" fill="#e9fde4" stroke="#000" stroke-width="122.569" d="M1629.751 3101.24h38134.621V68746.16H1629.752z"/><path color="#000" overflow="visible" fill="#ffc188" stroke="#000" stroke-width="122.569" d="M1629.751 49648.527h38134.621v6314.498H1629.752z"/><text style="line-height:0%;-inkscape-font-specification:'sans-serif Bold';text-align:start" x="12660.921" y="51747.359" font-weight="700" font-size="1470.832" font-family="sans-serif" letter-spacing="0" word-spacing="0" stroke-width="122.569" transform="translate(-109.063 5.996)"><tspan x="12660.921" y="51747.359" style="line-height:1.25;-inkscape-font-specification:'sans-serif Bold'" font-size="2144.963">Text segment</tspan></text><text y="50793.863" x="39107.156" style="line-height:0%;-inkscape-font-specification:monospace;text-align:end" font-weight="400" font-size="1470.832" font-family="monospace" letter-spacing="0" word-spacing="0" text-anchor="end" stroke-width="122.569" transform="translate(-109.063 5.996)"><tspan y="50793.863" x="39107.156" style="line-height:1.25;-inkscape-font-specification:monospace;text-align:end" font-size="1532.116">r-x</tspan></text><path color="#000" overflow="visible" fill="#ffc188" stroke="#000" stroke-width="122.569" d="M1629.751 43352.308h38134.621v6314.498H1629.752z"/><text y="45451.141" x="12234.651" style="line-height:0%;-inkscape-font-specification:'sans-serif Bold';text-align:start" font-weight="700" font-size="1470.832" font-family="sans-serif" letter-spacing="0" word-spacing="0" stroke-width="122.569" transform="translate(-109.063 5.996)"><tspan y="45451.141" x="12234.651" style="line-height:1.25;-inkscape-font-specification:'sans-serif Bold'" font-size="2144.963">Data segment</tspan></text><text style="line-height:0%;-inkscape-font-specification:monospace;text-align:end" x="39316.625" y="44497.645" font-weight="400" font-size="1470.832" font-family="monospace" letter-spacing="0" word-spacing="0" text-anchor="end" stroke-width="122.569" transform="translate(-109.063 5.996)"><tspan x="39316.625" y="44497.645" style="line-height:1.25;-inkscape-font-specification:monospace;text-align:end" font-size="1532.116">r--</tspan></text><text y="47536.059" x="20845.025" style="line-height:0%;-inkscape-font-specification:sans-serif;text-align:center" font-weight="400" font-size="1470.832" font-family="sans-serif" letter-spacing="0" word-spacing="0" text-anchor="middle" stroke-width="122.569" transform="translate(-109.063 5.996)"><tspan y="47536.059" x="20845.025" style="line-height:1;-inkscape-font-specification:sans-serif" font-size="1532.116">Initialized static variables.</tspan><tspan y="48835.363" x="20845.025" style="line-height:1;-inkscape-font-specification:monospace" font-size="1225.693" font-family="monospace">static char *hello = &quot;Hello, world!&quot;;</tspan></text><text style="line-height:0%;-inkscape-font-specification:sans-serif;text-align:center" x="20813.979" y="53664.523" font-weight="400" font-size="1470.832" font-family="sans-serif" letter-spacing="0" word-spacing="0" text-anchor="middle" stroke-width="122.569" transform="translate(-109.063 5.996)"><tspan x="20813.979" y="53664.523" style="line-height:1;-inkscape-font-specification:sans-serif" font-size="1532.116">ELF header and code of the process.</tspan><tspan style="line-height:1;-inkscape-font-specification:monospace" x="20813.979" y="54963.828" font-size="1225.693" font-family="monospace">int main() { return printf(hello); }</tspan></text><path color="#000" overflow="visible" fill="#ffc188" stroke="#000" stroke-width="122.569" d="M1629.751 37050.566h38134.621v6314.498H1629.752z"/><text style="line-height:0%;-inkscape-font-specification:'sans-serif Bold';text-align:center" x="20718.146" y="39149.398" font-weight="700" font-size="1470.832" font-family="sans-serif" letter-spacing="0" word-spacing="0" text-anchor="middle" stroke-width="122.569" transform="translate(-109.063 5.996)"><tspan x="20718.146" y="39149.398" style="line-height:1.25;-inkscape-font-specification:'sans-serif Bold'" font-size="2144.963">BSS segment</tspan></text><text y="38195.902" x="39316.625" style="line-height:0%;-inkscape-font-specification:monospace;text-align:end" font-weight="400" font-size="1470.832" font-family="monospace" letter-spacing="0" word-spacing="0" text-anchor="end" stroke-width="122.569" transform="translate(-109.063 5.996)"><tspan y="38195.902" x="39316.625" style="line-height:1.25;-inkscape-font-specification:monospace;text-align:end" font-size="1532.116">rw-</tspan></text><text style="line-height:0%;-inkscape-font-specification:sans-serif;text-align:center" x="20822.582" y="41234.316" font-weight="400" font-size="1470.832" font-family="sans-serif" letter-spacing="0" word-spacing="0" text-anchor="middle" stroke-width="122.569" transform="translate(-109.063 5.996)"><tspan x="20822.582" y="41234.316" style="line-height:1;-inkscape-font-specification:sans-serif" font-size="1532.116">Uninitialized static variables.</tspan><tspan style="line-height:1;-inkscape-font-specification:monospace" x="20822.582" y="42533.621" font-size="1225.693" font-family="monospace">static char *fullname;</tspan></text><text style="line-height:0%;-inkscape-font-specification:sans-serif;text-align:start" x="43725.391" y="68786.492" font-weight="400" font-size="1470.832" font-family="sans-serif" letter-spacing="0" word-spacing="0" stroke-width="122.569" transform="translate(-109.063 5.996)"><tspan x="43725.391" y="68786.492" style="line-height:1.25;-inkscape-font-specification:sans-serif" font-size="1532.116">0</tspan></text><path d="M39673.711 68746.163h4023.945" fill="none" stroke="#000" stroke-width="122.569" stroke-dasharray="122.56931,245.13862"/><path color="#000" overflow="visible" fill="#ffc188" stroke="#000" stroke-width="122.569" d="M1629.751 26019.33h38134.621v6314.498H1629.752z"/><text y="28118.16" x="20742.236" style="line-height:0%;-inkscape-font-specification:'sans-serif Bold';text-align:center" font-weight="700" font-size="1470.832" font-family="sans-serif" letter-spacing="0" word-spacing="0" text-anchor="middle" stroke-width="122.569" transform="translate(-109.063 5.996)"><tspan y="28118.16" x="20742.236" style="line-height:1.25;-inkscape-font-specification:'sans-serif Bold'" font-size="2144.963">Heap</tspan></text><text style="line-height:0%;-inkscape-font-specification:monospace;text-align:end" x="39316.625" y="27164.664" font-weight="400" font-size="1470.832" font-family="monospace" letter-spacing="0" word-spacing="0" text-anchor="end" stroke-width="122.569" transform="translate(-109.063 5.996)"><tspan x="39316.625" y="27164.664" style="line-height:1.25;-inkscape-font-specification:monospace;text-align:end" font-size="1532.116">rw-</tspan></text><text y="30203.08" x="20793.406" style="line-height:0%;-inkscape-font-specification:sans-serif;text-align:center" font-weight="400" font-size="1470.832" font-family="sans-serif" letter-spacing="0" word-spacing="0" text-anchor="middle" stroke-width="122.569" transform="translate(-109.063 5.996)"><tspan y="30203.08" x="20793.406" style="line-height:1;-inkscape-font-specification:sans-serif" font-size="1532.116">Small memory chunks</tspan><tspan y="31502.387" x="20793.406" style="line-height:1;-inkscape-font-specification:monospace" font-size="1225.693" font-family="monospace">char *path = malloc(256);</tspan></text><path color="#000" overflow="visible" fill="#ffc188" stroke="#000" stroke-width="122.569" d="M1629.751 55926.242h38134.621v7802.84H1629.752z"/><text style="line-height:0%;-inkscape-font-specification:'sans-serif Bold';text-align:center" x="20789.367" y="58025.07" font-weight="700" font-size="1470.832" font-family="sans-serif" letter-spacing="0" word-spacing="0" text-anchor="middle" stroke-width="122.569" transform="translate(-109.063 5.996)"><tspan x="20789.367" y="58025.07" style="line-height:1.25;-inkscape-font-specification:'sans-serif Bold'" font-size="2144.963">Other mmap segments</tspan></text><text y="27164.664" x="39051.051" style="line-height:0%;-inkscape-font-specification:monospace;text-align:end" font-weight="400" font-size="1470.832" font-family="monospace" letter-spacing="0" word-spacing="0" text-anchor="end" stroke-width="122.569" transform="translate(-109.063 5.996)"><tspan y="27164.664" x="39972.715" style="line-height:1.25;-inkscape-font-specification:monospace;text-align:end" font-size="1532.116"></tspan></text><text style="line-height:0%;-inkscape-font-specification:sans-serif;text-align:center" x="20797.146" y="60109.992" font-weight="400" font-size="1470.832" font-family="sans-serif" letter-spacing="0" word-spacing="0" text-anchor="middle" stroke-width="122.569" transform="translate(-109.063 5.996)"><tspan x="20797.146" y="60109.992" style="line-height:1;-inkscape-font-specification:sans-serif" font-size="1532.116">File mappings (including dynamic libraries)</tspan><tspan x="20797.146" y="61642.109" style="line-height:1;-inkscape-font-specification:sans-serif" font-size="1532.116">Anonymous mappings</tspan><tspan style="line-height:1;-inkscape-font-specification:monospace" x="20797.146" y="62941.414" font-size="1225.693" font-family="monospace">/lib/libc.so</tspan></text><path color="#000" overflow="visible" fill="#ffc188" stroke="#000" stroke-width="122.569" d="M1629.751 13517.26h38134.621v6314.498H1629.752z"/><text style="line-height:0%;-inkscape-font-specification:'sans-serif Bold';text-align:center" x="20695.105" y="15616.091" font-weight="700" font-size="1470.832" font-family="sans-serif" letter-spacing="0" word-spacing="0" text-anchor="middle" stroke-width="122.569" transform="translate(-109.063 5.996)"><tspan x="20695.105" y="15616.091" style="line-height:1.25;-inkscape-font-specification:'sans-serif Bold'" font-size="2144.963">Stack</tspan></text><text y="14662.595" x="39316.625" style="line-height:0%;-inkscape-font-specification:monospace;text-align:end" font-weight="400" font-size="1470.832" font-family="monospace" letter-spacing="0" word-spacing="0" text-anchor="end" stroke-width="122.569" transform="translate(-109.063 5.996)"><tspan y="14662.595" x="39316.625" style="line-height:1.25;-inkscape-font-specification:monospace;text-align:end" font-size="1532.116">rw-</tspan></text><text style="line-height:0%;-inkscape-font-specification:sans-serif;text-align:center" x="20768.719" y="17701.012" font-weight="400" font-size="1470.832" font-family="sans-serif" letter-spacing="0" word-spacing="0" text-anchor="middle" stroke-width="122.569" transform="translate(-109.063 5.996)"><tspan x="20768.719" y="17701.012" style="line-height:1;-inkscape-font-specification:sans-serif" font-size="1532.116">Local variables</tspan><tspan style="line-height:1;-inkscape-font-specification:monospace" x="20768.719" y="19000.318" font-size="1225.693" font-family="monospace">int tries = 10;</tspan></text><path color="#000" overflow="visible" fill="#ffc188" stroke="#000" stroke-width="122.569" d="M1629.751 2976.3h38134.621v5482.777H1629.752z"/><text y="5075.13" x="20758.994" style="line-height:0%;-inkscape-font-specification:'sans-serif Bold';text-align:center" font-weight="700" font-size="1470.832" font-family="sans-serif" letter-spacing="0" word-spacing="0" text-anchor="middle" stroke-width="122.569" transform="translate(-109.063 5.996)"><tspan y="5075.13" x="20758.994" style="line-height:1.25;-inkscape-font-specification:'sans-serif Bold'" font-size="2144.963">Kernel space</tspan></text><text style="line-height:0%;-inkscape-font-specification:monospace;text-align:end" x="39051.051" y="4121.634" font-weight="400" font-size="1470.832" font-family="monospace" letter-spacing="0" word-spacing="0" text-anchor="end" stroke-width="122.569" transform="translate(-109.063 5.996)"><tspan x="39972.715" y="4121.634" style="line-height:1.25;-inkscape-font-specification:monospace;text-align:end" font-size="1532.116"></tspan></text><text y="7160.05" x="20850.113" style="line-height:0%;-inkscape-font-specification:sans-serif;text-align:center" font-weight="400" font-size="1532.116" font-family="sans-serif" letter-spacing="0" word-spacing="0" text-anchor="middle" stroke-width="122.569" transform="translate(-109.063 5.996)"><tspan y="7160.05" x="20850.113" style="line-height:1;-inkscape-font-specification:sans-serif">Virtual memory reserved for the kernel usage.</tspan></text><text y="34531.988" x="42324.602" style="line-height:0%;-inkscape-font-specification:sans-serif;text-align:start" font-weight="400" font-size="1470.832" font-family="sans-serif" letter-spacing="0" word-spacing="0" stroke-width="122.569" transform="translate(-109.063 5.996)"><tspan y="34531.988" x="42324.602" style="line-height:100%;-inkscape-font-specification:sans-serif" font-size="1532.116">Random</tspan><tspan y="36064.105" x="42324.602" style="line-height:100%;-inkscape-font-specification:sans-serif" font-size="1532.116">offset</tspan></text><text style="line-height:0%;-inkscape-font-specification:sans-serif;text-align:start" x="42324.602" y="10981.171" font-weight="400" font-size="1470.832" font-family="sans-serif" letter-spacing="0" word-spacing="0" stroke-width="122.569" transform="translate(-109.063 5.996)"><tspan style="line-height:100%;-inkscape-font-specification:sans-serif" x="42324.602" y="10981.171" font-size="1532.116">Random</tspan><tspan style="line-height:100%;-inkscape-font-specification:sans-serif" x="42324.602" y="12513.287" font-size="1532.116">offset</tspan></text><path d="M39673.711 8459.077h4023.945" fill="none" stroke="#000" stroke-width="122.569" stroke-dasharray="122.56931,245.13862"/><text style="line-height:0%;-inkscape-font-specification:sans-serif;text-align:start" x="43725.391" y="8499.402" font-weight="400" font-size="1470.832" font-family="sans-serif" letter-spacing="0" word-spacing="0" stroke-width="122.569" transform="translate(-109.063 5.996)"><tspan style="line-height:1.25;-inkscape-font-specification:sans-serif" x="43725.391" y="8499.402" font-size="1532.116">3GB</tspan></text><path d="M39673.711 2976.61h4023.945" fill="none" stroke="#000" stroke-width="122.569" stroke-dasharray="122.56931,245.13862"/><text y="3016.938" x="43725.391" style="line-height:0%;-inkscape-font-specification:sans-serif;text-align:start" font-weight="400" font-size="1470.832" font-family="sans-serif" letter-spacing="0" word-spacing="0" stroke-width="122.569" transform="translate(-109.063 5.996)"><tspan y="3016.938" x="43725.391" style="line-height:1.25;-inkscape-font-specification:sans-serif" font-size="1532.116">4GB</tspan></text><g style="line-height:0%;-inkscape-font-specification:'Adobe Garamond Pro';text-align:start"><path d="M40417.522 34137.35c0 315.444 127.284 509.138 415.059 581.081v22.137c-287.775 71.944-415.06 265.638-415.06 581.082 0 188.16 27.672 381.854 49.808 570.013 22.136 188.16 55.341 370.786 55.341 553.412 0 215.831-55.341 464.866-464.866 531.275-27.67 22.138-27.67 83.013 0 110.683 271.172 0 785.845-49.807 785.845-697.298 0-193.695-22.136-392.923-44.274-592.15-22.136-193.695-38.738-381.855-38.738-547.878 0-188.16 22.136-426.127 481.469-459.332 27.67-33.205 27.67-88.546 0-121.751-459.333-33.204-481.469-271.171-481.469-459.331 0-171.558 22.136-354.184 38.738-553.411 16.604-193.694 44.274-398.457 44.274-586.617 0-647.49-514.673-697.298-785.845-697.298-27.67 27.67-27.67 83.011 0 110.682 409.525 66.41 464.866 315.445 464.866 531.275 0 177.091-27.67 365.251-55.341 553.411-27.671 188.16-49.807 376.32-49.807 570.015z" style="line-height:1.25" font-size="45.151" aria-label="}" font-weight="400" font-family="Adobe Garamond Pro" letter-spacing="0" word-spacing="0"/></g><g style="line-height:0%;-inkscape-font-specification:'Adobe Garamond Pro';text-align:start"><path d="M40329.972 10586.532c0 315.446 127.284 509.14 415.057 581.083v22.136c-287.773 71.943-415.057 265.638-415.057 581.082 0 188.16 27.67 381.854 49.807 570.014 22.136 188.16 55.34 370.786 55.34 553.411 0 215.831-55.34 464.867-464.865 531.276-27.671 22.136-27.671 83.011 0 110.682 271.171 0 785.845-49.807 785.845-697.299 0-193.694-22.138-392.922-44.274-592.15-22.136-193.694-38.739-381.854-38.739-547.877 0-188.16 22.137-426.127 481.468-459.332 27.672-33.204 27.672-88.545 0-121.75-459.33-33.205-481.468-271.172-481.468-459.332 0-171.557 22.137-354.183 38.74-553.411 16.601-193.695 44.273-398.457 44.273-586.617 0-647.492-514.674-697.298-785.845-697.298-27.671 27.67-27.671 83.012 0 110.682 409.525 66.409 464.865 315.445 464.865 531.275 0 177.092-27.67 365.252-55.34 553.411-27.671 188.16-49.807 376.32-49.807 570.014z" style="line-height:1.25" font-size="45.151" aria-label="}" font-weight="400" font-family="Adobe Garamond Pro" letter-spacing="0" word-spacing="0"/></g><path d="M2772.695 16472.125v2714.035" fill="none" stroke="#000" stroke-width="245.139" marker-end="url(#a)" transform="translate(-109.063 5.996)"/><path d="M2772.695 29362.315V26648.28" fill="none" stroke="#000" stroke-width="245.139" marker-end="url(#b)" transform="translate(-109.063 5.996)"/><path d="M2772.695 60351.938v2714.035" fill="none" stroke="#000" stroke-width="245.139" marker-end="url(#c)" transform="translate(-109.063 5.996)"/><text y="65909.734" x="42324.602" style="line-height:0%;-inkscape-font-specification:sans-serif;text-align:start" font-weight="400" font-size="1470.832" font-family="sans-serif" letter-spacing="0" word-spacing="0" stroke-width="122.569" transform="translate(-109.063 5.996)"><tspan y="65909.734" x="42324.602" style="line-height:100%;-inkscape-font-specification:sans-serif" font-size="1532.116">Random</tspan><tspan y="67441.852" x="42324.602" style="line-height:100%;-inkscape-font-specification:sans-serif" font-size="1532.116">offset</tspan></text><g style="line-height:0%;-inkscape-font-specification:'Adobe Garamond Pro';text-align:start"><path d="M40417.522 65515.09c0 315.444 127.284 509.138 415.059 581.08v22.138c-287.775 71.943-415.06 265.637-415.06 581.082 0 188.16 27.672 381.853 49.808 570.013 22.136 188.16 55.341 370.786 55.341 553.412 0 215.83-55.341 464.866-464.866 531.275-27.67 22.136-27.67 83.011 0 110.683 271.172 0 785.845-49.808 785.845-697.298 0-193.696-22.136-392.923-44.274-592.151-22.136-193.694-38.738-381.854-38.738-547.878 0-188.16 22.136-426.127 481.469-459.332 27.67-33.204 27.67-88.545 0-121.75-459.333-33.204-481.469-271.171-481.469-459.331 0-171.558 22.136-354.184 38.738-553.412 16.604-193.694 44.274-398.457 44.274-586.616 0-647.491-514.673-697.299-785.845-697.299-27.67 27.67-27.67 83.012 0 110.683 409.525 66.41 464.866 315.444 464.866 531.274 0 177.092-27.67 365.252-55.341 553.412-27.671 188.16-49.807 376.32-49.807 570.014z" style="line-height:1.25" font-size="45.151" aria-label="}" font-weight="400" font-family="Adobe Garamond Pro" letter-spacing="0" word-spacing="0"/></g></svg>